<?xml version="1.0" standalone="no"?>
<!DOCTYPE svg PUBLIC "-//W3C//DTD SVG 20010904//EN"
 "http://www.w3.org/TR/2001/REC-SVG-20010904/DTD/svg10.dtd">
<svg version="1.0" xmlns="http://www.w3.org/2000/svg"
 width="700.000000pt" height="700.000000pt" viewBox="0 0 700.000000 700.000000"
 preserveAspectRatio="xMidYMid meet">
<metadata>
Created by potrace 1.14, written by Peter Selinger 2001-2017
</metadata>
<g transform="translate(0.000000,700.000000) scale(0.100000,-0.100000)"
fill="#000000" stroke="none">
<path d="M2574 6680 l-29 -5 0 -950 0 -950 950 -2 c522 -1 952 2 955 7 8 12 5
1888 -2 1896 -8 7 -1829 12 -1874 4z"/>
<path d="M4775 4450 c-1 -3 -3 -432 -3 -955 l0 -950 947 1 c520 1 951 2 956 3
12 1 12 1887 0 1899 -8 8 -1895 10 -1900 2z"/>
<path d="M319 2196 c0 -17 -1 -446 -2 -954 l-2 -922 35 -1 c44 0 1863 0 1871
0 3 1 6 430 7 955 l1 953 -955 0 -954 1 -1 -32z"/>
<path d="M2549 2216 c-1 -6 -2 -435 -3 -953 -1 -832 1 -943 14 -944 20 0 1827
0 1865 0 l30 1 0 953 0 952 -953 1 c-686 1 -952 -2 -953 -10z"/>
<path d="M4774 1273 l1 -955 953 -2 952 -1 1 35 c3 249 0 1861 -5 1868 -3 6
-360 9 -955 9 l-949 0 2 -954z"/>
</g>
</svg>
